<?xml version="1.0" encoding="UTF-8" ?>
<!DOCTYPE svg PUBLIC "-//W3C//DTD SVG 1.1//EN" "http://www.w3.org/Graphics/SVG/1.1/DTD/svg11.dtd">
<svg width="2559pt" height="2554pt" viewBox="0 0 2559 2554" version="1.1" xmlns="http://www.w3.org/2000/svg">
<path fill="#101010" opacity="0.89" d=" M 1199.06 0.00 L 1199.93 0.00 C 1231.65 11.64 1244.47 44.79 1265.59 68.41 C 1271.46 73.00 1280.05 80.79 1286.99 73.09 C 1314.50 52.08 1324.13 12.07 1359.14 0.00 L 1360.85 0.00 C 1397.49 17.03 1398.16 65.52 1430.07 86.70 C 1465.78 73.49 1479.24 27.17 1518.97 20.50 C 1554.78 40.23 1548.92 90.08 1578.24 114.90 C 1615.37 106.57 1633.45 61.77 1673.92 60.38 C 1708.46 83.26 1694.15 133.88 1721.54 161.64 C 1759.10 157.35 1783.00 116.50 1822.85 119.30 C 1854.88 145.92 1834.29 194.78 1857.91 225.65 C 1895.84 227.31 1924.51 187.01 1963.75 197.01 C 1992.58 227.21 1963.82 274.89 1986.29 306.97 C 2023.46 311.93 2057.00 276.54 2094.44 291.43 C 2116.70 325.82 2087.30 366.63 2100.88 402.32 C 2137.32 412.92 2175.09 383.02 2211.00 401.00 C 2230.70 437.38 2193.66 474.85 2203.78 511.98 C 2238.57 528.19 2280.24 502.10 2313.72 524.57 C 2327.05 563.12 2289.08 595.15 2292.02 633.26 C 2323.99 655.07 2370.88 631.59 2400.12 661.22 C 2407.82 701.47 2364.63 727.75 2365.27 766.29 C 2389.03 784.85 2422.22 779.52 2449.09 790.89 C 2455.81 798.10 2473.43 801.75 2467.73 814.63 C 2465.27 850.82 2424.92 870.45 2420.61 905.71 C 2441.17 929.74 2478.27 925.27 2502.75 943.25 C 2508.24 950.23 2522.48 956.23 2516.13 967.01 C 2509.46 1002.80 2466.35 1016.95 2458.22 1051.75 C 2480.00 1083.44 2530.20 1079.16 2548.10 1115.67 C 2541.55 1155.87 2491.17 1165.47 2477.38 1201.09 C 2486.80 1223.84 2514.69 1229.68 2532.06 1244.90 C 2546.43 1250.29 2550.26 1265.29 2559.00 1276.08 L 2559.00 1276.96 C 2550.35 1288.40 2545.89 1303.62 2531.06 1309.09 C 2513.75 1324.03 2487.07 1329.84 2477.08 1351.99 C 2489.90 1385.30 2534.11 1394.24 2545.11 1428.98 C 2548.49 1433.96 2548.10 1440.26 2543.18 1444.12 C 2523.65 1474.81 2478.96 1472.27 2458.09 1501.29 C 2466.75 1539.15 2517.70 1554.18 2517.32 1595.91 C 2494.46 1629.01 2446.34 1619.86 2420.29 1647.62 C 2426.14 1685.41 2472.26 1707.35 2468.18 1748.04 C 2441.50 1778.39 2394.59 1763.54 2365.14 1787.68 C 2365.75 1826.15 2408.25 1853.06 2400.14 1893.16 C 2369.88 1920.96 2324.13 1898.65 2292.00 1920.13 C 2289.29 1957.74 2325.13 1988.38 2314.85 2026.86 C 2282.70 2053.67 2237.90 2023.44 2203.65 2041.87 C 2194.27 2079.06 2230.57 2116.66 2210.68 2152.77 C 2174.76 2171.13 2136.76 2139.08 2100.59 2151.53 C 2087.84 2187.43 2116.50 2227.33 2094.70 2261.76 C 2057.00 2277.12 2021.82 2239.52 1984.21 2247.85 C 1967.04 2281.69 1990.66 2327.22 1963.39 2357.13 C 1924.17 2365.07 1896.10 2326.16 1858.27 2327.88 C 1833.87 2358.05 1854.60 2406.76 1823.55 2433.73 C 1783.15 2437.77 1759.21 2394.89 1720.98 2392.15 C 1695.51 2420.41 1707.24 2469.28 1674.60 2492.69 C 1633.81 2492.46 1615.63 2446.91 1578.42 2438.35 C 1548.40 2462.80 1555.59 2513.68 1518.91 2532.53 C 1479.52 2527.03 1466.36 2480.70 1431.62 2467.52 C 1420.97 2469.48 1413.40 2480.58 1409.17 2490.17 C 1395.46 2512.76 1386.77 2541.13 1360.64 2552.56 C 1320.41 2543.93 1314.61 2492.89 1279.95 2476.42 C 1244.68 2491.83 1239.46 2542.32 1199.90 2552.63 C 1161.37 2538.73 1161.70 2487.88 1129.63 2467.13 C 1092.84 2478.17 1079.91 2528.19 1039.53 2532.43 C 1004.83 2511.76 1009.67 2464.10 981.63 2438.38 C 943.75 2445.90 924.94 2493.74 883.89 2492.28 C 851.49 2468.02 864.13 2420.19 838.27 2392.27 C 800.24 2394.79 776.16 2437.48 736.02 2433.90 C 705.24 2406.34 723.31 2359.80 702.12 2328.05 C 663.43 2325.12 634.02 2367.10 594.49 2356.25 C 568.69 2324.83 592.50 2280.69 574.32 2247.14 C 539.01 2240.59 508.10 2273.02 472.64 2263.46 C 459.71 2264.93 461.26 2248.48 456.60 2240.50 C 452.51 2210.97 470.37 2179.40 457.97 2150.83 C 421.69 2140.11 382.60 2171.62 347.39 2151.60 C 330.64 2114.47 364.86 2078.36 355.10 2041.17 C 320.61 2025.72 277.14 2051.97 245.08 2027.73 C 233.10 1988.80 271.27 1957.11 266.40 1919.29 C 234.21 1899.17 188.10 1920.73 159.22 1892.30 C 151.40 1852.33 193.82 1826.22 193.94 1788.29 C 165.31 1762.38 115.73 1779.01 90.34 1746.91 C 89.18 1706.28 133.74 1685.33 138.66 1647.44 C 117.55 1624.80 82.19 1627.17 57.29 1610.71 C 52.16 1603.46 37.18 1598.45 42.65 1587.85 C 48.53 1550.89 92.46 1536.55 101.45 1501.23 C 78.24 1470.93 27.10 1473.80 11.40 1436.04 C 19.85 1400.71 58.65 1388.38 78.15 1361.02 C 88.43 1348.99 71.97 1336.93 62.75 1331.23 C 42.73 1316.54 15.30 1308.39 4.89 1284.03 C -4.05 1275.36 8.00 1266.52 11.48 1258.50 C 30.28 1234.24 67.27 1229.50 82.43 1201.73 C 68.42 1165.93 17.56 1156.21 11.54 1115.55 C 29.03 1079.10 79.35 1082.93 100.81 1051.69 C 92.62 1014.05 42.36 999.83 41.37 958.44 C 63.35 924.06 112.03 933.68 138.68 906.29 C 133.71 868.11 87.52 846.46 90.82 805.74 C 117.23 774.67 164.38 790.16 193.91 765.88 C 194.90 732.66 162.12 709.95 159.12 677.66 C 158.89 669.34 155.96 658.04 166.80 655.56 C 196.10 633.46 238.33 654.57 267.20 632.78 C 269.40 595.05 233.52 564.01 245.12 525.36 C 277.54 500.66 321.42 529.27 355.88 511.41 C 363.44 474.33 330.84 438.45 347.36 401.45 C 374.63 387.14 404.51 400.55 432.55 404.50 C 444.00 405.95 463.95 407.33 462.13 389.81 C 463.93 357.07 446.94 322.40 464.52 291.42 C 502.54 276.38 536.99 313.04 574.54 306.00 C 592.66 272.55 568.23 227.33 595.21 197.00 C 634.38 187.16 663.15 226.65 700.95 225.92 C 725.11 195.48 704.75 148.12 734.81 119.86 C 774.91 114.79 799.80 157.58 837.64 161.70 C 864.88 134.02 850.85 85.27 883.91 60.79 C 924.73 59.65 943.42 106.59 980.74 114.94 C 1010.85 90.55 1003.68 39.16 1040.81 20.60 C 1080.36 27.16 1093.30 73.62 1128.92 86.67 C 1161.21 65.65 1161.77 16.44 1199.06 0.00 M 1199.42 12.51 C 1165.92 31.44 1165.74 79.51 1131.35 98.21 C 1092.24 90.90 1080.49 40.85 1042.17 32.12 C 1010.32 54.60 1017.39 104.59 983.74 125.87 C 944.18 122.83 926.65 75.16 887.77 72.33 C 859.71 98.56 871.70 147.30 841.88 172.61 C 802.42 173.18 779.12 130.24 740.44 130.17 C 714.33 159.66 733.77 206.32 707.13 236.22 C 667.98 241.71 639.34 201.79 600.94 207.27 C 578.84 239.13 604.53 284.51 580.75 315.97 C 542.71 326.79 509.59 290.14 471.79 300.54 C 455.60 335.92 485.33 376.43 466.05 411.07 C 429.75 426.49 392.33 394.77 356.34 409.23 C 342.81 446.04 378.53 483.17 364.05 519.87 C 329.95 539.53 288.49 513.09 254.50 531.90 C 246.65 570.59 286.74 602.05 276.17 640.83 C 244.69 664.80 199.52 642.63 168.91 666.92 C 167.68 705.63 208.41 731.66 204.89 771.14 C 176.53 799.04 129.76 783.57 101.16 810.35 C 103.53 849.70 150.16 869.86 149.50 910.27 C 125.05 941.12 76.94 931.36 52.22 961.29 C 57.70 996.88 99.62 1010.98 109.59 1044.44 C 110.71 1048.33 115.08 1053.39 110.92 1056.85 C 92.67 1082.82 58.44 1086.39 33.92 1103.87 C 29.52 1109.56 20.20 1115.13 24.56 1123.31 C 38.91 1156.17 83.28 1165.23 93.79 1201.19 C 80.30 1238.93 27.85 1240.71 12.44 1276.88 C 27.46 1311.01 74.15 1313.27 90.93 1346.12 C 95.41 1349.42 93.44 1354.30 91.07 1358.00 C 77.76 1391.65 32.78 1400.15 22.46 1435.78 C 43.35 1468.56 94.01 1465.00 112.74 1499.92 C 105.94 1538.61 59.57 1553.69 52.37 1591.78 C 77.01 1622.35 126.74 1611.62 149.97 1644.37 C 148.12 1683.67 104.20 1704.24 101.24 1742.72 C 129.17 1770.62 178.42 1753.47 205.01 1783.34 C 207.90 1822.59 166.43 1848.27 169.23 1887.14 C 200.42 1911.19 247.50 1887.39 277.08 1914.36 C 284.13 1952.81 247.91 1983.18 254.18 2021.23 C 288.08 2041.71 331.15 2011.91 364.98 2034.50 C 377.47 2071.81 343.67 2107.02 356.01 2143.89 C 392.15 2159.08 431.18 2125.38 466.86 2143.13 C 482.51 2175.20 460.62 2209.91 468.07 2242.87 C 468.47 2254.75 479.37 2254.82 488.25 2255.59 C 519.87 2251.84 549.59 2228.22 581.82 2237.90 C 604.10 2270.78 579.38 2314.31 600.98 2346.69 C 639.72 2351.63 668.97 2309.91 707.77 2317.89 C 733.67 2347.56 715.55 2392.59 739.64 2422.71 C 779.20 2424.20 803.10 2378.01 843.03 2381.71 C 872.40 2407.83 859.39 2455.91 888.31 2481.74 C 927.05 2477.08 944.45 2430.91 983.85 2427.22 C 1017.39 2448.56 1010.00 2498.85 1042.29 2520.98 C 1080.62 2512.88 1092.10 2461.56 1131.50 2455.44 C 1166.07 2473.89 1166.03 2522.68 1200.13 2540.90 C 1236.31 2527.48 1241.95 2478.65 1278.55 2464.66 C 1315.15 2475.79 1321.82 2523.18 1354.79 2539.34 C 1361.81 2544.33 1367.72 2534.21 1373.43 2531.43 C 1392.60 2506.83 1399.29 2472.21 1427.59 2455.48 C 1466.79 2461.59 1478.47 2512.75 1516.76 2520.91 C 1549.55 2499.19 1541.56 2448.60 1575.35 2427.09 C 1614.90 2431.28 1632.69 2477.34 1671.54 2481.65 C 1699.67 2454.97 1687.00 2407.33 1716.57 2381.26 C 1756.44 2379.14 1780.05 2423.53 1819.09 2422.68 C 1844.52 2393.05 1825.68 2345.99 1852.28 2317.11 C 1891.15 2312.29 1919.79 2350.32 1958.08 2346.81 C 1979.39 2314.43 1956.96 2271.31 1977.25 2237.99 C 2015.22 2224.70 2049.49 2264.63 2087.48 2252.63 C 2103.82 2217.40 2073.90 2176.82 2093.27 2142.19 C 2129.70 2127.07 2167.09 2158.57 2203.33 2144.27 C 2215.86 2107.06 2180.49 2070.29 2195.30 2033.46 C 2229.54 2014.11 2270.83 2040.73 2304.74 2021.51 C 2312.01 1983.21 2274.14 1952.43 2282.33 1913.77 C 2312.31 1887.99 2358.72 1910.45 2389.93 1887.23 C 2393.32 1847.90 2348.68 1820.90 2355.08 1781.31 C 2383.61 1754.71 2429.26 1769.52 2457.55 1743.41 C 2457.02 1703.94 2408.27 1682.99 2409.69 1642.78 C 2434.67 1612.68 2482.36 1621.95 2506.70 1591.68 C 2499.94 1553.36 2451.62 1537.71 2446.57 1498.59 C 2466.92 1464.74 2517.26 1469.03 2536.63 1434.99 C 2524.82 1398.40 2476.45 1389.51 2465.29 1351.86 C 2479.05 1314.25 2531.90 1312.92 2546.57 1276.16 C 2530.08 1240.99 2480.44 1238.65 2465.12 1201.90 C 2476.58 1164.23 2524.55 1155.01 2536.73 1118.13 C 2516.53 1084.35 2465.82 1088.55 2446.36 1053.96 C 2453.13 1015.10 2499.61 999.70 2506.69 961.57 C 2482.43 930.62 2431.99 941.64 2409.14 908.62 C 2410.92 869.27 2455.65 849.27 2457.92 810.47 C 2429.89 782.95 2381.36 799.35 2354.27 770.64 C 2351.68 734.44 2385.39 709.91 2389.96 675.85 C 2393.92 664.83 2382.57 661.44 2375.19 657.72 C 2344.53 650.24 2308.07 659.92 2281.99 639.64 C 2274.65 601.19 2311.32 570.73 2304.92 532.78 C 2271.68 511.60 2227.13 541.41 2194.11 518.71 C 2182.70 481.45 2214.94 446.44 2203.65 409.52 C 2167.34 393.59 2127.73 428.48 2091.97 409.93 C 2075.28 374.61 2104.56 335.22 2087.29 300.60 C 2049.52 290.11 2016.18 326.64 1978.21 315.99 C 1955.63 284.29 1980.21 239.11 1958.39 207.10 C 1919.60 200.93 1890.27 243.85 1851.29 235.19 C 1825.62 205.33 1843.65 160.25 1819.33 130.23 C 1780.05 129.76 1756.22 174.24 1716.67 172.26 C 1686.94 146.05 1700.10 97.93 1671.25 72.11 C 1631.96 75.18 1614.57 123.59 1574.61 125.74 C 1541.86 103.46 1548.92 54.35 1516.85 32.08 C 1479.42 41.26 1467.58 88.70 1429.53 98.32 C 1393.11 81.88 1393.88 30.27 1358.95 12.24 C 1322.44 26.14 1317.27 75.65 1279.86 88.87 C 1242.41 75.85 1236.24 25.21 1199.42 12.51 Z" />
<path fill="#808080" opacity="1.00" d=" M 1199.42 12.51 C 1236.24 25.21 1242.41 75.85 1279.86 88.87 C 1317.27 75.65 1322.44 26.14 1358.95 12.24 C 1393.88 30.27 1393.11 81.88 1429.53 98.32 C 1467.58 88.70 1479.42 41.26 1516.85 32.08 C 1548.92 54.35 1541.86 103.46 1574.61 125.74 C 1614.57 123.59 1631.96 75.18 1671.25 72.11 C 1700.10 97.93 1686.94 146.05 1716.67 172.26 C 1756.22 174.24 1780.05 129.76 1819.33 130.23 C 1843.65 160.25 1825.62 205.33 1851.29 235.19 C 1890.27 243.85 1919.60 200.93 1958.39 207.10 C 1980.21 239.11 1955.63 284.29 1978.21 315.99 C 2016.18 326.64 2049.52 290.11 2087.29 300.60 C 2104.56 335.22 2075.28 374.61 2091.97 409.93 C 2127.73 428.48 2167.34 393.59 2203.65 409.52 C 2214.94 446.44 2182.70 481.45 2194.11 518.71 C 2227.13 541.41 2271.68 511.60 2304.92 532.78 C 2311.32 570.73 2274.65 601.19 2281.99 639.64 C 2308.07 659.92 2344.53 650.24 2375.19 657.72 C 2382.57 661.44 2393.92 664.83 2389.96 675.85 C 2385.39 709.91 2351.68 734.44 2354.27 770.64 C 2381.36 799.35 2429.89 782.95 2457.92 810.47 C 2455.65 849.27 2410.92 869.27 2409.14 908.62 C 2431.99 941.64 2482.43 930.62 2506.69 961.57 C 2499.61 999.70 2453.13 1015.10 2446.36 1053.96 C 2465.82 1088.55 2516.53 1084.35 2536.73 1118.13 C 2524.55 1155.01 2476.58 1164.23 2465.12 1201.90 C 2480.44 1238.65 2530.08 1240.99 2546.57 1276.16 C 2531.90 1312.92 2479.05 1314.25 2465.29 1351.86 C 2476.45 1389.51 2524.82 1398.40 2536.63 1434.99 C 2517.26 1469.03 2466.92 1464.74 2446.57 1498.59 C 2451.62 1537.71 2499.94 1553.36 2506.70 1591.68 C 2482.36 1621.95 2434.67 1612.68 2409.69 1642.78 C 2408.27 1682.99 2457.02 1703.94 2457.55 1743.41 C 2429.26 1769.52 2383.61 1754.71 2355.08 1781.31 C 2348.68 1820.90 2393.32 1847.90 2389.93 1887.23 C 2358.72 1910.45 2312.31 1887.99 2282.33 1913.77 C 2274.14 1952.43 2312.01 1983.21 2304.74 2021.51 C 2270.83 2040.73 2229.54 2014.11 2195.30 2033.46 C 2180.49 2070.29 2215.86 2107.06 2203.33 2144.27 C 2167.09 2158.57 2129.70 2127.07 2093.27 2142.19 C 2073.90 2176.82 2103.82 2217.40 2087.48 2252.63 C 2049.49 2264.63 2015.22 2224.70 1977.25 2237.99 C 1956.96 2271.31 1979.39 2314.43 1958.08 2346.81 C 1919.79 2350.32 1891.15 2312.29 1852.28 2317.11 C 1825.68 2345.99 1844.52 2393.05 1819.09 2422.68 C 1780.05 2423.53 1756.44 2379.14 1716.57 2381.26 C 1687.00 2407.33 1699.67 2454.97 1671.54 2481.65 C 1632.69 2477.34 1614.90 2431.28 1575.35 2427.09 C 1541.56 2448.60 1549.55 2499.19 1516.76 2520.91 C 1478.47 2512.75 1466.79 2461.59 1427.59 2455.48 C 1399.29 2472.21 1392.60 2506.83 1373.43 2531.43 C 1367.72 2534.21 1361.81 2544.33 1354.79 2539.34 C 1321.82 2523.18 1315.15 2475.79 1278.55 2464.66 C 1241.95 2478.65 1236.31 2527.48 1200.13 2540.90 C 1166.03 2522.68 1166.07 2473.89 1131.50 2455.44 C 1092.10 2461.56 1080.62 2512.88 1042.29 2520.98 C 1010.00 2498.85 1017.39 2448.56 983.85 2427.22 C 944.45 2430.91 927.05 2477.08 888.31 2481.74 C 859.39 2455.91 872.40 2407.83 843.03 2381.71 C 803.10 2378.01 779.20 2424.20 739.64 2422.71 C 715.55 2392.59 733.67 2347.56 707.77 2317.89 C 668.97 2309.91 639.72 2351.63 600.98 2346.69 C 579.38 2314.31 604.10 2270.78 581.82 2237.90 C 549.59 2228.22 519.87 2251.84 488.25 2255.59 C 479.37 2254.82 468.47 2254.75 468.07 2242.87 C 460.62 2209.91 482.51 2175.20 466.86 2143.13 C 431.18 2125.38 392.15 2159.08 356.01 2143.89 C 343.67 2107.02 377.47 2071.81 364.98 2034.50 C 331.15 2011.91 288.08 2041.71 254.18 2021.23 C 247.91 1983.18 284.13 1952.81 277.08 1914.36 C 247.50 1887.39 200.42 1911.19 169.23 1887.14 C 166.43 1848.27 207.90 1822.59 205.01 1783.34 C 178.42 1753.47 129.17 1770.62 101.24 1742.72 C 104.20 1704.24 148.12 1683.67 149.97 1644.37 C 126.74 1611.62 77.01 1622.35 52.37 1591.78 C 59.57 1553.69 105.94 1538.61 112.74 1499.92 C 94.01 1465.00 43.35 1468.56 22.46 1435.78 C 32.78 1400.15 77.76 1391.65 91.07 1358.00 C 93.44 1354.30 95.41 1349.42 90.93 1346.12 C 74.15 1313.27 27.46 1311.01 12.44 1276.88 C 27.85 1240.71 80.30 1238.93 93.79 1201.19 C 83.28 1165.23 38.91 1156.17 24.56 1123.31 C 20.20 1115.13 29.52 1109.56 33.92 1103.87 C 58.44 1086.39 92.67 1082.82 110.92 1056.85 C 115.08 1053.39 110.71 1048.33 109.59 1044.44 C 99.62 1010.98 57.70 996.88 52.22 961.29 C 76.94 931.36 125.05 941.12 149.50 910.27 C 150.16 869.86 103.53 849.70 101.16 810.35 C 129.76 783.57 176.53 799.04 204.89 771.14 C 208.41 731.66 167.68 705.63 168.91 666.92 C 199.52 642.63 244.69 664.80 276.17 640.83 C 286.74 602.05 246.65 570.59 254.50 531.90 C 288.49 513.09 329.95 539.53 364.05 519.87 C 378.53 483.17 342.81 446.04 356.34 409.23 C 392.33 394.77 429.75 426.49 466.05 411.07 C 485.33 376.43 455.60 335.92 471.79 300.54 C 509.59 290.14 542.71 326.79 580.75 315.97 C 604.53 284.51 578.84 239.13 600.94 207.27 C 639.34 201.79 667.98 241.71 707.13 236.22 C 733.77 206.32 714.33 159.66 740.44 130.17 C 779.12 130.24 802.42 173.18 841.88 172.61 C 871.70 147.30 859.71 98.56 887.77 72.33 C 926.65 75.16 944.18 122.83 983.74 125.87 C 1017.39 104.59 1010.32 54.60 1042.17 32.12 C 1080.49 40.85 1092.24 90.90 1131.35 98.21 C 1165.74 79.51 1165.92 31.44 1199.42 12.51 M 1246.54 206.53 C 1083.23 211.17 921.12 254.02 776.99 330.99 C 583.99 433.25 423.96 596.34 325.06 791.07 C 256.98 924.85 217.07 1073.09 210.17 1223.09 C 201.18 1405.60 238.82 1590.62 321.00 1754.00 C 414.98 1943.61 566.98 2103.60 750.95 2208.04 C 876.40 2279.47 1016.49 2324.96 1159.97 2341.02 C 1370.23 2364.19 1587.75 2325.00 1775.00 2225.99 C 2048.58 2084.94 2254.62 1819.86 2322.52 1519.52 C 2385.72 1252.69 2340.54 962.01 2198.81 727.18 C 2104.58 569.36 1968.83 436.85 1809.19 345.80 C 1639.20 248.91 1442.19 199.44 1246.54 206.53 Z" />
<path fill="#101010" opacity="0.89" d=" M 1246.54 206.53 C 1442.19 199.44 1639.20 248.91 1809.19 345.80 C 1968.83 436.85 2104.58 569.36 2198.81 727.18 C 2340.54 962.01 2385.72 1252.69 2322.52 1519.52 C 2254.62 1819.86 2048.58 2084.94 1775.00 2225.99 C 1587.75 2325.00 1370.23 2364.19 1159.97 2341.02 C 1016.49 2324.96 876.40 2279.47 750.95 2208.04 C 566.98 2103.60 414.98 1943.61 321.00 1754.00 C 238.82 1590.62 201.18 1405.60 210.17 1223.09 C 217.07 1073.09 256.98 924.85 325.06 791.07 C 423.96 596.34 583.99 433.25 776.99 330.99 C 921.12 254.02 1083.23 211.17 1246.54 206.53 M 1270.51 216.41 C 1226.60 219.86 1182.54 221.48 1138.71 225.68 C 1094.11 233.96 1049.67 243.15 1005.23 252.22 C 962.48 266.13 919.95 280.74 877.46 295.44 C 835.74 314.00 795.62 335.96 754.17 355.13 C 880.81 542.65 1007.77 730.09 1135.40 916.95 C 1211.49 887.29 1296.66 881.32 1375.94 901.73 C 1477.16 699.48 1579.17 497.53 1680.02 295.14 C 1639.88 280.40 1599.02 267.39 1558.59 253.36 C 1529.51 246.21 1499.86 241.67 1470.58 235.42 C 1405.18 219.62 1337.29 219.81 1270.51 216.41 M 1690.08 298.16 C 1588.86 500.09 1486.86 701.80 1386.36 904.02 C 1428.38 917.34 1471.12 936.72 1507.19 963.86 C 1510.19 966.75 1512.16 962.54 1513.09 960.09 C 1610.58 758.47 1709.02 557.12 1805.76 355.26 C 1768.38 333.94 1729.47 315.43 1690.08 298.16 M 743.53 361.52 C 706.90 382.67 671.54 406.27 638.11 432.19 C 759.83 619.23 883.61 805.35 1006.00 992.11 C 1007.98 993.20 1008.99 1000.34 1012.13 997.12 C 1045.05 965.85 1083.28 939.97 1124.92 921.82 C 1001.28 735.69 873.90 551.46 749.08 365.89 C 747.45 364.63 746.56 359.66 743.53 361.52 M 1814.18 361.22 C 1716.88 563.37 1618.51 765.01 1520.98 967.05 C 1520.12 969.65 1516.77 973.75 1521.85 975.00 C 1585.20 1024.86 1629.66 1095.81 1653.48 1172.19 C 1878.92 1159.46 2104.33 1145.55 2329.78 1132.91 C 2322.31 1089.15 2312.94 1045.50 2304.09 1001.92 C 2289.30 957.56 2274.35 913.24 2258.91 869.11 C 2238.58 828.12 2218.95 786.76 2197.85 746.17 C 2172.69 707.77 2147.22 669.55 2121.44 631.57 C 2101.62 607.49 2080.34 584.64 2060.02 560.98 C 2022.47 514.51 1973.73 479.21 1929.89 439.11 C 1892.45 411.60 1852.91 386.85 1814.18 361.22 M 629.63 439.18 C 604.36 459.94 580.43 482.31 555.57 503.57 C 519.98 532.34 493.16 569.83 462.21 603.21 C 430.82 635.98 409.14 676.22 383.00 713.00 C 355.77 748.97 339.92 791.42 319.00 831.00 C 290.62 882.81 277.52 940.92 256.88 995.89 C 248.28 1030.11 242.79 1065.05 235.58 1099.59 C 221.92 1155.64 224.66 1213.86 219.14 1270.96 C 444.89 1254.44 670.78 1238.73 896.47 1221.52 C 907.81 1140.74 946.03 1064.34 1002.85 1006.03 C 878.78 816.90 754.58 627.73 629.63 439.18 M 1269.51 900.41 C 1189.07 903.11 1109.00 930.39 1045.91 980.91 C 975.58 1037.48 925.27 1119.43 909.56 1208.56 C 886.14 1322.82 923.82 1446.23 1002.62 1531.38 C 1053.60 1586.94 1121.31 1628.42 1195.58 1643.42 C 1323.10 1673.51 1466.72 1631.74 1554.56 1533.56 C 1644.32 1438.93 1679.85 1295.20 1640.64 1170.34 C 1608.03 1056.77 1518.33 961.57 1407.07 921.91 C 1362.98 906.84 1316.10 899.32 1269.51 900.41 M 2322.53 1143.53 C 2100.07 1156.76 1877.56 1169.53 1655.11 1182.78 C 1666.90 1227.77 1668.77 1274.89 1664.14 1320.94 C 1889.35 1304.31 2114.62 1288.21 2339.85 1271.77 C 2340.13 1228.83 2337.26 1185.77 2331.63 1143.19 C 2329.36 1143.28 2324.81 1143.45 2322.53 1143.53 M 894.46 1232.50 C 669.37 1248.89 444.28 1265.52 219.15 1281.28 C 219.29 1324.21 222.16 1367.20 227.32 1409.84 C 452.81 1398.02 678.26 1383.08 903.76 1371.06 C 892.36 1326.14 891.34 1276.75 894.46 1232.50 M 2335.56 1282.58 C 2111.54 1298.80 1887.55 1315.51 1663.50 1331.13 C 1650.75 1411.70 1614.20 1489.10 1556.27 1547.07 C 1680.12 1736.35 1804.91 1925.07 1929.18 2114.10 C 1963.40 2086.32 1996.01 2056.31 2029.12 2027.12 C 2061.24 1990.89 2093.71 1954.88 2124.60 1917.59 C 2155.27 1868.02 2193.72 1822.83 2217.02 1769.02 C 2231.85 1738.52 2248.11 1708.67 2261.48 1677.48 C 2275.76 1635.69 2289.96 1593.86 2304.02 1552.00 C 2313.08 1506.99 2322.29 1462.01 2330.94 1416.93 C 2334.77 1372.11 2336.89 1327.15 2340.15 1282.29 L 2335.56 1282.58 M 896.61 1381.53 C 674.23 1394.86 451.01 1407.27 229.14 1420.99 C 241.69 1477.33 247.30 1535.71 268.11 1589.89 C 284.66 1637.29 297.64 1686.25 322.99 1730.01 C 353.37 1800.97 397.99 1864.06 441.95 1927.05 C 471.66 1960.66 500.77 1994.85 530.97 2028.03 C 565.07 2057.93 598.95 2088.12 633.42 2117.60 C 670.42 2142.61 707.12 2168.20 744.89 2192.03 C 843.38 1988.34 942.21 1784.79 1040.78 1581.15 C 977.29 1531.27 929.45 1461.27 907.63 1383.39 C 906.92 1378.09 899.83 1382.57 896.61 1381.53 M 1548.40 1555.43 C 1514.80 1587.14 1475.99 1613.02 1433.92 1631.99 C 1560.02 1819.34 1687.37 2005.89 1814.04 2192.87 C 1850.22 2172.33 1884.60 2148.58 1918.13 2123.96 C 1922.82 2122.97 1920.51 2119.19 1919.08 2116.99 C 1795.29 1930.27 1672.46 1740.47 1548.40 1555.43 M 1048.28 1588.29 C 950.44 1791.66 851.30 1994.45 753.36 2197.77 C 790.77 2219.28 829.75 2238.79 869.66 2254.82 C 970.26 2053.52 1071.42 1852.51 1172.36 1651.38 C 1173.37 1650.04 1172.66 1647.99 1170.89 1647.99 C 1126.64 1636.11 1086.03 1613.10 1048.28 1588.29 M 1422.37 1636.49 C 1348.74 1665.95 1266.03 1671.59 1188.99 1652.89 C 1186.61 1652.60 1183.07 1650.77 1181.98 1653.95 C 1081.55 1855.81 979.17 2056.83 879.15 2258.81 C 918.24 2272.02 957.38 2285.11 996.36 2298.64 C 1043.52 2310.09 1091.49 2318.21 1139.04 2327.97 C 1185.96 2331.57 1232.99 2334.81 1280.01 2337.05 C 1325.72 2334.80 1371.41 2331.54 1417.06 2328.12 C 1463.18 2320.01 1509.05 2310.25 1554.93 2300.94 C 1597.65 2286.99 1640.13 2272.17 1682.68 2257.69 C 1723.93 2238.80 1764.11 2217.68 1804.95 2197.95 C 1679.03 2011.39 1552.31 1825.29 1425.99 1638.98 C 1425.08 1638.36 1423.28 1637.11 1422.37 1636.49 Z" />
<path fill="#808080" opacity="1.00" d=" M 1690.08 298.16 C 1729.47 315.43 1768.38 333.94 1805.76 355.26 C 1709.02 557.12 1610.58 758.47 1513.09 960.09 C 1512.16 962.54 1510.19 966.75 1507.19 963.86 C 1471.12 936.72 1428.38 917.34 1386.36 904.02 C 1486.86 701.80 1588.86 500.09 1690.08 298.16 Z" />
<path fill="#808080" opacity="1.00" d=" M 743.53 361.52 C 746.56 359.66 747.45 364.63 749.08 365.89 C 873.90 551.46 1001.28 735.69 1124.92 921.82 C 1083.28 939.97 1045.05 965.85 1012.13 997.12 C 1008.99 1000.34 1007.98 993.20 1006.00 992.11 C 883.61 805.35 759.83 619.23 638.11 432.19 C 671.54 406.27 706.90 382.67 743.53 361.52 Z" />
<path fill="#808080" opacity="1.00" d=" M 1269.51 900.41 C 1316.10 899.32 1362.98 906.84 1407.07 921.91 C 1518.33 961.57 1608.03 1056.77 1640.64 1170.34 C 1679.85 1295.20 1644.32 1438.93 1554.56 1533.56 C 1466.72 1631.74 1323.10 1673.51 1195.58 1643.42 C 1121.31 1628.42 1053.60 1586.94 1002.62 1531.38 C 923.82 1446.23 886.14 1322.82 909.56 1208.56 C 925.27 1119.43 975.58 1037.48 1045.91 980.91 C 1109.00 930.39 1189.07 903.11 1269.51 900.41 M 1263.56 1017.54 C 1200.84 1021.27 1139.46 1048.40 1095.71 1093.71 C 1040.68 1147.73 1012.39 1227.80 1021.60 1304.41 C 1029.43 1388.07 1081.99 1465.56 1155.98 1505.02 C 1195.59 1526.44 1240.87 1537.96 1285.98 1536.06 C 1378.86 1535.18 1468.32 1478.95 1510.09 1396.09 C 1544.18 1331.70 1548.48 1252.54 1522.41 1184.59 C 1484.58 1080.44 1374.18 1008.69 1263.56 1017.54 Z" />
<path fill="#101010" opacity="0.89" d=" M 1263.56 1017.54 C 1374.18 1008.69 1484.58 1080.44 1522.41 1184.59 C 1548.48 1252.54 1544.18 1331.70 1510.09 1396.09 C 1468.32 1478.95 1378.86 1535.18 1285.98 1536.06 C 1240.87 1537.96 1195.59 1526.44 1155.98 1505.02 C 1081.99 1465.56 1029.43 1388.07 1021.60 1304.41 C 1012.39 1227.80 1040.68 1147.73 1095.71 1093.71 C 1139.46 1048.40 1200.84 1021.27 1263.56 1017.54 M 1266.58 1027.53 C 1204.90 1030.54 1144.70 1057.31 1101.71 1101.71 C 1047.63 1156.02 1020.69 1236.36 1032.77 1312.25 C 1043.58 1396.15 1101.51 1471.45 1178.92 1505.06 C 1246.34 1535.22 1327.42 1532.95 1393.00 1499.01 C 1488.55 1452.02 1545.60 1339.34 1525.51 1234.48 C 1507.58 1113.30 1388.82 1018.09 1266.58 1027.53 Z" />
<path fill="#808080" opacity="1.00" d=" M 2322.53 1143.53 C 2324.81 1143.45 2329.36 1143.28 2331.63 1143.19 C 2337.26 1185.77 2340.13 1228.83 2339.85 1271.77 C 2114.62 1288.21 1889.35 1304.31 1664.14 1320.94 C 1668.77 1274.89 1666.90 1227.77 1655.11 1182.78 C 1877.56 1169.53 2100.07 1156.76 2322.53 1143.53 Z" />
<path fill="#808080" opacity="1.00" d=" M 894.46 1232.50 C 891.34 1276.75 892.36 1326.14 903.76 1371.06 C 678.26 1383.08 452.81 1398.02 227.32 1409.84 C 222.16 1367.20 219.29 1324.21 219.15 1281.28 C 444.28 1265.52 669.37 1248.89 894.46 1232.50 Z" />
<path fill="#808080" opacity="1.00" d=" M 1548.40 1555.43 C 1672.46 1740.47 1795.29 1930.27 1919.08 2116.99 C 1920.51 2119.19 1922.82 2122.97 1918.13 2123.96 C 1884.60 2148.58 1850.22 2172.33 1814.04 2192.87 C 1687.37 2005.89 1560.02 1819.34 1433.92 1631.99 C 1475.99 1613.02 1514.80 1587.14 1548.40 1555.43 Z" />
<path fill="#808080" opacity="1.00" d=" M 1048.28 1588.29 C 1086.03 1613.10 1126.64 1636.11 1170.89 1647.99 C 1172.66 1647.99 1173.37 1650.04 1172.36 1651.38 C 1071.42 1852.51 970.26 2053.52 869.66 2254.82 C 829.75 2238.79 790.77 2219.28 753.36 2197.77 C 851.30 1994.45 950.44 1791.66 1048.28 1588.29 Z" />
</svg>
